<svg width="1440" height="48" viewBox="0 0 1440 48" fill="none" xmlns="http://www.w3.org/2000/svg">
<rect width="1440" height="48" fill="#F8F9FA"/>
<rect x="1263" y="8" width="80" height="32" rx="5" fill="#F0F2F4"/>
<path d="M1288.72 22.2536H1286.86C1286.81 21.9486 1286.71 21.6785 1286.57 21.4432C1286.42 21.2045 1286.25 21.0024 1286.03 20.8366C1285.82 20.6709 1285.58 20.5466 1285.31 20.4638C1285.04 20.3776 1284.75 20.3345 1284.44 20.3345C1283.89 20.3345 1283.39 20.4737 1282.97 20.7521C1282.54 21.0272 1282.21 21.4316 1281.96 21.9652C1281.72 22.4955 1281.6 23.1435 1281.6 23.9091C1281.6 24.688 1281.72 25.3442 1281.96 25.8778C1282.21 26.4081 1282.54 26.8092 1282.97 27.081C1283.39 27.3494 1283.88 27.4837 1284.43 27.4837C1284.74 27.4837 1285.02 27.4439 1285.29 27.3643C1285.56 27.2815 1285.8 27.1605 1286.01 27.0014C1286.23 26.8423 1286.41 26.6468 1286.55 26.4148C1286.7 26.1828 1286.8 25.9176 1286.86 25.6193L1288.72 25.6293C1288.65 26.1132 1288.5 26.5672 1288.27 26.9915C1288.04 27.4157 1287.74 27.7902 1287.37 28.1151C1287 28.4366 1286.56 28.6884 1286.06 28.8707C1285.57 29.0497 1285.02 29.1392 1284.41 29.1392C1283.51 29.1392 1282.72 28.9321 1282.01 28.5178C1281.31 28.1035 1280.76 27.5052 1280.35 26.723C1279.95 25.9408 1279.75 25.0028 1279.75 23.9091C1279.75 22.812 1279.95 21.8741 1280.36 21.0952C1280.76 20.313 1281.32 19.7147 1282.02 19.3004C1282.73 18.8861 1283.52 18.679 1284.41 18.679C1284.98 18.679 1285.5 18.7585 1285.99 18.9176C1286.48 19.0767 1286.91 19.3104 1287.29 19.6186C1287.67 19.9235 1287.99 20.2981 1288.23 20.7422C1288.48 21.183 1288.64 21.6868 1288.72 22.2536ZM1292.53 29.1541C1292.04 29.1541 1291.61 29.0679 1291.22 28.8956C1290.83 28.7199 1290.53 28.4614 1290.3 28.12C1290.08 27.7786 1289.97 27.3577 1289.97 26.8572C1289.97 26.4264 1290.05 26.0701 1290.21 25.7884C1290.37 25.5066 1290.59 25.2812 1290.86 25.1122C1291.14 24.9432 1291.45 24.8156 1291.79 24.7294C1292.14 24.6399 1292.5 24.5753 1292.87 24.5355C1293.32 24.4891 1293.68 24.4477 1293.96 24.4112C1294.24 24.3714 1294.44 24.3118 1294.56 24.2322C1294.69 24.1494 1294.76 24.0218 1294.76 23.8494V23.8196C1294.76 23.4451 1294.65 23.1551 1294.43 22.9496C1294.2 22.7441 1293.88 22.6413 1293.47 22.6413C1293.03 22.6413 1292.68 22.7375 1292.42 22.9297C1292.16 23.1219 1291.99 23.349 1291.9 23.6108L1290.22 23.3722C1290.35 22.9081 1290.57 22.5204 1290.88 22.2088C1291.18 21.8939 1291.55 21.6586 1291.99 21.5028C1292.44 21.3438 1292.92 21.2642 1293.46 21.2642C1293.82 21.2642 1294.19 21.3073 1294.55 21.3935C1294.92 21.4796 1295.25 21.6222 1295.55 21.821C1295.86 22.0166 1296.1 22.2834 1296.28 22.6214C1296.47 22.9595 1296.56 23.3821 1296.56 23.8892V29H1294.83V27.951H1294.77C1294.66 28.1631 1294.51 28.362 1294.31 28.5476C1294.11 28.7299 1293.86 28.8774 1293.57 28.9901C1293.27 29.0994 1292.92 29.1541 1292.53 29.1541ZM1292.99 27.8317C1293.36 27.8317 1293.67 27.7604 1293.93 27.6179C1294.2 27.4721 1294.4 27.2798 1294.54 27.0412C1294.69 26.8026 1294.76 26.5424 1294.76 26.2607V25.3608C1294.71 25.4072 1294.61 25.4503 1294.48 25.4901C1294.34 25.5298 1294.19 25.5646 1294.03 25.5945C1293.86 25.6243 1293.7 25.6508 1293.54 25.674C1293.37 25.6972 1293.23 25.7171 1293.11 25.7337C1292.84 25.7701 1292.6 25.8298 1292.39 25.9126C1292.18 25.9955 1292.01 26.1115 1291.89 26.2607C1291.77 26.4065 1291.71 26.5954 1291.71 26.8274C1291.71 27.1589 1291.83 27.4091 1292.07 27.5781C1292.31 27.7472 1292.62 27.8317 1292.99 27.8317ZM1300.17 24.5256V29H1298.37V21.3636H1300.09V22.6612H1300.18C1300.35 22.2337 1300.63 21.8939 1301.02 21.642C1301.41 21.3902 1301.88 21.2642 1302.45 21.2642C1302.98 21.2642 1303.44 21.3769 1303.83 21.6023C1304.23 21.8277 1304.53 22.1541 1304.75 22.5817C1304.97 23.0092 1305.07 23.5279 1305.07 24.1378V29H1303.27V24.4162C1303.27 23.9058 1303.14 23.5064 1302.87 23.218C1302.61 22.9297 1302.25 22.7855 1301.78 22.7855C1301.47 22.7855 1301.19 22.8551 1300.94 22.9943C1300.7 23.1302 1300.51 23.3274 1300.37 23.5859C1300.24 23.8445 1300.17 24.1577 1300.17 24.5256ZM1310.23 29.1491C1309.47 29.1491 1308.81 28.9818 1308.27 28.647C1307.72 28.3123 1307.3 27.8499 1307.01 27.2599C1306.72 26.6667 1306.57 25.9839 1306.57 25.2116C1306.57 24.4361 1306.72 23.7517 1307.02 23.1584C1307.32 22.5618 1307.74 22.0978 1308.28 21.7663C1308.83 21.4316 1309.47 21.2642 1310.22 21.2642C1310.84 21.2642 1311.39 21.3786 1311.87 21.6072C1312.35 21.8326 1312.73 22.1525 1313.01 22.5668C1313.3 22.9777 1313.46 23.4583 1313.5 24.0085H1311.78C1311.71 23.6406 1311.55 23.334 1311.28 23.0888C1311.03 22.8402 1310.68 22.7159 1310.25 22.7159C1309.88 22.7159 1309.55 22.8153 1309.28 23.0142C1309 23.2098 1308.78 23.4915 1308.62 23.8594C1308.47 24.2273 1308.4 24.6681 1308.4 25.1818C1308.4 25.7022 1308.47 26.1496 1308.62 26.5241C1308.78 26.8954 1308.99 27.1821 1309.27 27.3842C1309.54 27.5831 1309.87 27.6825 1310.25 27.6825C1310.51 27.6825 1310.75 27.6328 1310.96 27.5334C1311.17 27.4306 1311.35 27.2831 1311.49 27.0909C1311.63 26.8987 1311.73 26.665 1311.78 26.3899H1313.5C1313.46 26.9302 1313.3 27.4091 1313.02 27.8267C1312.75 28.241 1312.37 28.5658 1311.9 28.8011C1311.43 29.0331 1310.87 29.1491 1310.23 29.1491ZM1318.36 29.1491C1317.59 29.1491 1316.93 28.9901 1316.38 28.6719C1315.82 28.3504 1315.4 27.8963 1315.1 27.3097C1314.8 26.7197 1314.65 26.0253 1314.65 25.2266C1314.65 24.4411 1314.8 23.7517 1315.1 23.1584C1315.4 22.5618 1315.82 22.0978 1316.36 21.7663C1316.9 21.4316 1317.54 21.2642 1318.27 21.2642C1318.74 21.2642 1319.18 21.3404 1319.6 21.4929C1320.02 21.642 1320.39 21.8741 1320.71 22.1889C1321.04 22.5038 1321.29 22.9048 1321.48 23.392C1321.66 23.8759 1321.76 24.4527 1321.76 25.1222V25.674H1315.5V24.4609H1320.03C1320.03 24.1162 1319.95 23.8097 1319.81 23.5412C1319.66 23.2694 1319.46 23.0556 1319.2 22.8999C1318.94 22.7441 1318.64 22.6662 1318.29 22.6662C1317.92 22.6662 1317.6 22.7557 1317.32 22.9347C1317.04 23.1103 1316.83 23.3423 1316.67 23.6307C1316.52 23.9157 1316.44 24.2289 1316.44 24.5703V25.6293C1316.44 26.0734 1316.52 26.4545 1316.68 26.7727C1316.84 27.0876 1317.07 27.3295 1317.36 27.4986C1317.65 27.6643 1317.99 27.7472 1318.38 27.7472C1318.65 27.7472 1318.88 27.7107 1319.1 27.6378C1319.31 27.5616 1319.49 27.4505 1319.65 27.3047C1319.8 27.1589 1319.92 26.9782 1320 26.7628L1321.68 26.9517C1321.58 27.3958 1321.37 27.7836 1321.07 28.1151C1320.78 28.4432 1320.4 28.6984 1319.94 28.8807C1319.48 29.0597 1318.95 29.1491 1318.36 29.1491ZM1325.08 18.8182V29H1323.28V18.8182H1325.08Z" fill="#005BC8"/>
<rect x="1351" y="8" width="65" height="32" rx="5" fill="#005BC8"/>
<path d="M1373.54 21.6172C1373.49 21.183 1373.3 20.8449 1372.95 20.603C1372.61 20.361 1372.17 20.2401 1371.62 20.2401C1371.23 20.2401 1370.9 20.2981 1370.63 20.4141C1370.35 20.5301 1370.14 20.6875 1370 20.8864C1369.85 21.0852 1369.78 21.3123 1369.77 21.5675C1369.77 21.7796 1369.82 21.9635 1369.92 22.1193C1370.02 22.2751 1370.15 22.4077 1370.32 22.517C1370.49 22.6231 1370.68 22.7126 1370.88 22.7855C1371.09 22.8584 1371.3 22.9197 1371.5 22.9695L1372.46 23.2081C1372.84 23.2976 1373.21 23.4186 1373.57 23.571C1373.93 23.7235 1374.25 23.9157 1374.53 24.1477C1374.81 24.3797 1375.04 24.6598 1375.2 24.9879C1375.37 25.3161 1375.45 25.7005 1375.45 26.1413C1375.45 26.7379 1375.3 27.2633 1374.99 27.7173C1374.69 28.1681 1374.25 28.5211 1373.67 28.7763C1373.1 29.0282 1372.4 29.1541 1371.59 29.1541C1370.8 29.1541 1370.11 29.0315 1369.53 28.7862C1368.95 28.541 1368.49 28.183 1368.16 27.7124C1367.84 27.2417 1367.66 26.6683 1367.64 25.9922H1369.45C1369.48 26.3468 1369.59 26.6418 1369.78 26.8771C1369.97 27.1125 1370.22 27.2881 1370.53 27.4041C1370.84 27.5201 1371.19 27.5781 1371.57 27.5781C1371.97 27.5781 1372.33 27.5185 1372.63 27.3991C1372.93 27.2765 1373.17 27.1075 1373.34 26.892C1373.52 26.6733 1373.6 26.4181 1373.61 26.1264C1373.6 25.8613 1373.53 25.6425 1373.37 25.4702C1373.22 25.2945 1373.01 25.1487 1372.73 25.0327C1372.46 24.9134 1372.14 24.8073 1371.78 24.7145L1370.62 24.4162C1369.78 24.2008 1369.12 23.8743 1368.63 23.4368C1368.15 22.996 1367.9 22.411 1367.9 21.6818C1367.9 21.0819 1368.07 20.5566 1368.39 20.1058C1368.72 19.6551 1369.17 19.3054 1369.73 19.0568C1370.29 18.8049 1370.93 18.679 1371.64 18.679C1372.37 18.679 1373 18.8049 1373.54 19.0568C1374.09 19.3054 1374.52 19.6518 1374.83 20.0959C1375.14 20.5367 1375.3 21.0438 1375.31 21.6172H1373.54ZM1379.21 29.1541C1378.73 29.1541 1378.29 29.0679 1377.91 28.8956C1377.52 28.7199 1377.22 28.4614 1376.99 28.12C1376.77 27.7786 1376.66 27.3577 1376.66 26.8572C1376.66 26.4264 1376.74 26.0701 1376.9 25.7884C1377.06 25.5066 1377.27 25.2812 1377.55 25.1122C1377.82 24.9432 1378.13 24.8156 1378.48 24.7294C1378.83 24.6399 1379.19 24.5753 1379.56 24.5355C1380 24.4891 1380.37 24.4477 1380.65 24.4112C1380.92 24.3714 1381.13 24.3118 1381.25 24.2322C1381.38 24.1494 1381.45 24.0218 1381.45 23.8494V23.8196C1381.45 23.4451 1381.34 23.1551 1381.11 22.9496C1380.89 22.7441 1380.57 22.6413 1380.15 22.6413C1379.71 22.6413 1379.36 22.7375 1379.1 22.9297C1378.85 23.1219 1378.68 23.349 1378.59 23.6108L1376.91 23.3722C1377.04 22.9081 1377.26 22.5204 1377.56 22.2088C1377.87 21.8939 1378.24 21.6586 1378.68 21.5028C1379.12 21.3438 1379.61 21.2642 1380.14 21.2642C1380.51 21.2642 1380.88 21.3073 1381.24 21.3935C1381.61 21.4796 1381.94 21.6222 1382.24 21.821C1382.54 22.0166 1382.79 22.2834 1382.97 22.6214C1383.15 22.9595 1383.25 23.3821 1383.25 23.8892V29H1381.52V27.951H1381.46C1381.35 28.1631 1381.19 28.362 1380.99 28.5476C1380.8 28.7299 1380.55 28.8774 1380.25 28.9901C1379.96 29.0994 1379.61 29.1541 1379.21 29.1541ZM1379.68 27.8317C1380.04 27.8317 1380.36 27.7604 1380.62 27.6179C1380.89 27.4721 1381.09 27.2798 1381.23 27.0412C1381.38 26.8026 1381.45 26.5424 1381.45 26.2607V25.3608C1381.39 25.4072 1381.3 25.4503 1381.16 25.4901C1381.03 25.5298 1380.88 25.5646 1380.72 25.5945C1380.55 25.6243 1380.39 25.6508 1380.22 25.674C1380.06 25.6972 1379.92 25.7171 1379.8 25.7337C1379.53 25.7701 1379.29 25.8298 1379.08 25.9126C1378.87 25.9955 1378.7 26.1115 1378.58 26.2607C1378.45 26.4065 1378.39 26.5954 1378.39 26.8274C1378.39 27.1589 1378.51 27.4091 1378.76 27.5781C1379 27.7472 1379.31 27.8317 1379.68 27.8317ZM1391.6 21.3636L1388.88 29H1386.9L1384.18 21.3636H1386.09L1387.85 27.0362H1387.93L1389.69 21.3636H1391.6ZM1395.97 29.1491C1395.2 29.1491 1394.54 28.9901 1393.99 28.6719C1393.43 28.3504 1393.01 27.8963 1392.71 27.3097C1392.41 26.7197 1392.26 26.0253 1392.26 25.2266C1392.26 24.4411 1392.41 23.7517 1392.71 23.1584C1393.01 22.5618 1393.43 22.0978 1393.97 21.7663C1394.51 21.4316 1395.15 21.2642 1395.88 21.2642C1396.35 21.2642 1396.79 21.3404 1397.21 21.4929C1397.63 21.642 1398 21.8741 1398.32 22.1889C1398.65 22.5038 1398.9 22.9048 1399.09 23.392C1399.27 23.8759 1399.37 24.4527 1399.37 25.1222V25.674H1393.11V24.4609H1397.64C1397.64 24.1162 1397.56 23.8097 1397.42 23.5412C1397.27 23.2694 1397.07 23.0556 1396.8 22.8999C1396.55 22.7441 1396.24 22.6662 1395.9 22.6662C1395.53 22.6662 1395.21 22.7557 1394.93 22.9347C1394.65 23.1103 1394.43 23.3423 1394.28 23.6307C1394.13 23.9157 1394.05 24.2289 1394.05 24.5703V25.6293C1394.05 26.0734 1394.13 26.4545 1394.29 26.7727C1394.45 27.0876 1394.68 27.3295 1394.97 27.4986C1395.26 27.6643 1395.6 27.7472 1395.99 27.7472C1396.26 27.7472 1396.49 27.7107 1396.71 27.6378C1396.92 27.5616 1397.1 27.4505 1397.26 27.3047C1397.41 27.1589 1397.53 26.9782 1397.61 26.7628L1399.29 26.9517C1399.18 27.3958 1398.98 27.7836 1398.68 28.1151C1398.39 28.4432 1398.01 28.6984 1397.55 28.8807C1397.09 29.0597 1396.56 29.1491 1395.97 29.1491Z" fill="white"/>
</svg>
