<svg width="20" height="20" viewBox="0 0 20 20" fill="none" xmlns="http://www.w3.org/2000/svg">
<path d="M2 2V11.9516C2 12.9872 2.57085 13.9416 3.49076 14.4446L9.99377 18L16.5074 14.4446C17.4287 13.9421 18 12.9872 18 11.9507V2H2ZM11.5021 13.4708H6.21038V11.6772L11.5021 11.6981C12.0227 11.6981 12.4487 11.2789 12.4487 10.7668C12.4487 10.2547 12.0227 9.83557 11.5021 9.83557H8.56618C7.05467 9.83557 5.81752 8.619 5.81752 7.13163C5.81752 5.64471 7.05421 4.42769 8.56618 4.42769H13.8579V6.22125L8.56618 6.20083C8.04559 6.20083 7.61953 6.61996 7.61953 7.13208C7.61953 7.6442 8.04559 8.06333 8.56618 8.06333H11.5021C13.0136 8.06333 14.2507 9.2799 14.2507 10.7673C14.2507 12.2546 13.014 13.4708 11.5021 13.4708Z" fill="#777A7D"/>
</svg>
